<?xml version="1.0" encoding="utf-8"?>
<!-- Generator: Adobe Illustrator 24.0.1, SVG Export Plug-In . SVG Version: 6.00 Build 0)  -->
<svg version="1.1" id="Layer_1" xmlns="http://www.w3.org/2000/svg" xmlns:xlink="http://www.w3.org/1999/xlink" x="0px" y="0px"
	 viewBox="0 0 1841.1 982.3" style="enable-background:new 0 0 1841.1 982.3;" xml:space="preserve">
<style type="text/css">
	.st0{fill:#FFFFFF;}
</style>
<g>
	<path id="Fill-46" class="st0" d="M621.4,379.6c0,23.1-6.4,41.8-19.7,55c-13.3,13.3-29.5,20.1-49.1,20.1c-12.8,0-22.6-3.4-30-10.8
		c-6.9-6.9-10.8-17.2-10.8-30.5c0-18.7,7.4-33.9,22.6-45.2c15.2-11.3,44.2-19.7,87-25.5V379.6L621.4,379.6z M455.8,306.4
		c7.9,6.9,18.7,10.8,31.9,10.8c12.3,0,22.1-3.4,29.5-9.8c7.4-6.4,11.3-15.2,11.3-25.5c0-8.4-2.9-16.7-8.4-25.1
		c-2.5-3.9-3.9-6.4-3.9-8.4c0-3.4,3.4-7.4,10.3-10.8c10.3-5.4,22.6-8.4,35.9-8.4c17.7,0,31.9,4.9,42.7,14.2
		c10.8,9.8,15.7,22.1,15.7,36.8v38.3c-79.1,13.8-130.7,27-154.3,40.8c-29,17.2-43.7,40.3-43.7,68.8c0,19.2,7.9,34.4,23.6,46.7
		c15.7,12.3,37.8,18.2,66.3,18.2c20.6,0,38.8-3.4,55-10.3c16.2-6.9,34.9-20.1,55-39.3c4.4,10.3,19.2,52.1,69.3,52.1
		c30.9,0,51.6-11.3,51.6-11.3h173.4v-26.5h-16.7c-9.8,0-17.2-2.5-22.6-7.4c-3.9-3.9-5.9-10.8-5.9-21.6V324.6
		c0-10.3,3.4-21.6,10.8-33.9c7.4-12.3,16.2-21.1,26.5-27c10.3-5.9,21.6-8.8,33.4-8.8c15.2,0,28,5.4,38.3,15.7
		c9.8,10.8,15.2,25.5,15.2,44.7v119.9c0,7.9-2.5,13.8-6.9,17.7c-3.4,3.4-10.8,4.9-21.1,4.9H949v26.5H1122v-26.5h-18.7
		c-9.3,0-16.2-2-21.6-6.9c-3.9-3.4-5.4-11.3-5.4-18.2V332.5c0-13.3,4.4-26.5,11.3-39.8c6.9-13.8,15.2-23.1,25.1-29
		c9.8-5.9,21.6-8.8,34.9-8.8c16.7,0,29.5,4.9,38.8,15.2c9.3,10.3,13.8,26,13.8,47.2v116.9c0,8.4-2,14.7-6.4,18.2
		c-4.4,3.9-11.8,5.9-22.6,5.9h-17.2v26.5h332.6v-26.5h-19.2c-8.4,0-14.7-1.5-18.7-4.9c-3.9-3.4-6.4-7.9-6.4-14.2V213.6l-124.8,5.4
		v26h12.8c10.3,0,18.7,2.5,24.6,7.9c5.9,5.4,8.8,12.8,8.8,22.6v158.2c0,32.4-84,32.4-84,0.5V306.9c0-31.4-8.4-55.5-24.6-72.2
		c-16.2-16.7-38.8-25.1-67.3-25.1c-20.6,0-40.3,4.9-59,14.7c-18.7,9.8-37.8,26.5-56.5,50.6c-6.9-21.6-17.7-37.8-32.4-48.6
		c-14.7-10.8-33.4-16.2-55.5-16.2c-20.6,0-40.3,4.4-58,13.8c-17.7,9.3-36.4,25.5-55.5,48.6c-1.5-21.1-4.4-40.8-8.8-59l-115.9,5.9v26
		c14.2,0,23.6,1,28,2.5c6.4,2.5,10.8,5.4,13.8,9.8c2.9,4.4,4.4,9.8,4.4,17.2v153.3c0,37.3-90.9,43.7-90.9-1V297.1
		c0-20.1-4.4-36.8-13.8-50.6c-9.3-13.8-21.1-23.6-35.9-29c-22.6-8.8-48.6-13.3-78.1-13.3c-38.8,0-71.7,8.8-97.8,26
		c-21.1,13.8-31.4,30-31.4,48.6C444,290.2,447.9,299.5,455.8,306.4L455.8,306.4z"/>
	<path id="Fill-47" class="st0" d="M1399.5,189c13.3,0,25.1-4.4,34.4-13.3c9.8-8.8,14.2-20.1,14.2-32.9c0-12.8-4.9-23.6-14.2-32.9
		c-9.8-8.8-21.1-13.3-34.4-13.3c-13.8,0-25.1,4.4-34.9,13.3s-14.2,20.1-14.2,32.9c0,12.8,4.9,23.6,14.2,32.4
		C1374,184.1,1385.8,189,1399.5,189"/>
	<path id="Fill-48" class="st0" d="M1590.6,258.3c10.3-16.2,25.1-24.6,44.7-24.6c16.2,0,30,5.9,40.3,18.2
		c10.8,12.3,15.7,29,15.7,51.1c0,10.8-2,18.7-5.9,22.6c-3.9,3.9-9.8,6.4-18.7,6.4h-93.8C1574.4,299.1,1580.3,274.5,1590.6,258.3
		L1590.6,258.3z M1751.7,403.2c-16.2,23.6-31.9,40.3-47.2,49.1c-15.2,8.8-31.4,13.8-49.1,13.8c-24.1,0-43.7-8.8-59-26.5
		s-23.1-45.2-23.6-82.5h197c-0.5-34.4-6.9-61.9-18.2-83.5c-11.3-21.6-27.5-37.8-48.6-49.1c-20.6-11.3-45.2-16.7-74.2-16.7
		c-41.8,0-76.6,13.8-105.1,41.8c-28.5,28-42.7,62.4-42.7,103.7c0,41.3,14.2,75.2,42.7,101.7c28.5,26.5,65.8,39.8,111.5,39.8
		c31.4,0,58.5-5.9,80.1-18.2c22.1-12.3,41.3-32.4,58.5-60.9L1751.7,403.2L1751.7,403.2z"/>
	<path id="Fill-49" class="st0" d="M1163.7,642.4h-120.8v25.1c28,1,42.2,8.8,42.2,25.1c0,5.9-1.5,11.3-4.9,17.2l-61.4,116.4
		l-71.2-124.3c-4.4-7.4-6.4-13.8-6.4-19.2c0-4.9,2-8.4,5.9-11.3c3.9-2.5,11.3-3.9,22.1-3.9h13.8v-25.1H816.4v25.1h8.4
		c7.4,0,13.3,1.5,17.7,4.4c4.4,2.9,9.3,9.3,15.2,19.2l128.2,222h21.6l115.9-219.6c4.9-8.8,9.8-15.2,15.7-18.7
		c5.9-3.9,14.2-6.4,25.5-7.4v-25.1"/>
	<path id="Fill-50" class="st0" d="M1249.7,682.7c10.3-16.2,25.1-24.6,44.7-24.6c16.2,0,30,5.9,40.3,17.7
		c10.3,12.3,15.7,29,15.7,51.1c0,10.8-2,18.7-5.9,22.6c-3.9,3.9-10.3,6.4-19.2,6.4h-93.8C1233.5,723.5,1239.4,698.9,1249.7,682.7z
		 M1410.8,828.1c-16.2,23.6-31.9,40.3-47.2,49.1c-15.2,8.8-31.9,13.8-48.6,13.8c-24.1,0-43.7-8.8-59-26.5
		c-15.2-17.7-23.1-45.2-24.1-82.5h197c-0.5-34.4-6.9-61.9-18.2-83.5c-11.3-21.6-27.5-37.8-48.1-49.1c-20.6-11.3-45.7-16.7-74.2-16.7
		c-41.8,0-76.6,13.8-105.6,41.8c-28.5,28-42.7,62.4-42.7,103.7s14.2,75.2,42.7,101.7c28.5,26.5,65.8,39.8,111.5,39.8
		c31.4,0,58.5-5.9,80.6-18.2c22.1-12.3,41.3-32.4,58.5-60.9L1410.8,828.1L1410.8,828.1z"/>
	<path id="Fill-51" class="st0" d="M1645.6,638.5c-21.6,0-41.3,7.9-59,23.1c-17.2,15.7-29.5,37.8-36.8,66.8v-86.5l-120.4,5.9v25.1
		h15.7c10.8,0,19.7,2.9,25.5,8.8c5.9,5.9,9.3,15.2,9.3,28v157.2c0,6.4-2.5,11.3-6.9,14.7s-11.8,5.4-22.1,5.4H1429v26.5h194.5v-26.5
		h-41.3c-6.9,0-12.3-2-15.7-5.4c-3.9-3.4-5.9-8.4-5.9-15.2V809c0-26.5,4.4-52.6,13.3-78.6c8.8-26,20.1-45.2,33.4-57.5
		c8.8-7.9,16.7-11.8,23.6-11.8c2.9,0,4.9,0.5,5.9,2c1.5,1.5,2,3.4,2,5.9c0,1.5-1,3.9-2.5,7.9c-3.4,6.4-4.9,12.8-4.9,18.2
		c0,10.3,3.4,19.2,10.3,26c6.9,6.9,15.2,10.3,25.1,10.3c10.8,0,20.1-3.9,27.5-11.8c7.4-7.9,11.3-18.2,11.3-30.9
		c0-14.7-5.4-27-16.2-36.4C1679,642.9,1664.3,638.5,1645.6,638.5"/>
	<path id="Fill-52" class="st0" d="M801.7,881.7c-3.9-3.4-5.9-7.9-5.9-13.8V642.4L671,647.8v25.5h12.8c10.3,0,18.7,2.5,24.6,7.9
		c5.9,5.4,8.8,12.8,8.8,22.6v158.7c0,14.2-16.7,22.1-35.9,24.1c-5.4,0.5-18.2,0.5-23.6,0c-18.7-2-35.4-9.8-35.4-23.6V494.6l-9.8,1
		c-26,28.5-73.2,30-119.9,30v25.1h19.2c18.2,0,31.4,13.8,31.4,28.5v281c0,8.8-2,15.7-6.4,20.1c-4.4,4.4-10.8,6.9-19.7,6.9h-19.2
		v26.5h342.4v-26.5h-19.2C812,886.6,805.6,885.1,801.7,881.7"/>
	<path id="Fill-53" class="st0" d="M714.2,535.8c-9.8,8.8-14.2,20.1-14.2,32.9c0,12.8,4.9,23.6,14.2,32.4
		c9.8,8.8,21.1,13.8,34.9,13.8c13.3,0,25.1-4.4,34.4-13.3c9.8-8.8,14.2-19.7,14.2-32.9c0-13.3-4.9-23.6-14.2-32.9
		c-9.8-8.8-21.1-13.3-34.4-13.3C735.3,522.6,724,527,714.2,535.8"/>
	<path id="Fill-54" class="st0" d="M367.9,849.7c-20.6,29-48.1,43.7-82.5,43.7c-23.1,0-43.7-6.4-61.4-18.7
		c-17.7-12.3-30.9-31.9-40.3-57.5c-9.3-26-13.8-65.3-13.8-115.4c0-48.1,4.9-85,14.7-112.5c9.8-27.5,23.1-47.7,40.3-59.9
		c16.7-12.3,36.8-18.7,59.4-18.7c23.1,0,43.2,6.4,60.9,18.7c17.7,12.3,30.9,30.9,39.8,56.5c8.8,25.1,13.3,65.8,13.3,115.9
		C398.8,773.1,388.5,820.8,367.9,849.7z M394.9,511.8c-26.5-15.2-55-24.1-85.5-27c18.2-5.9,34.4-14.2,48.1-25.5
		c27-23.1,40.3-52.1,40.3-87.4V116.3c0-8.4,2-14.7,6.4-18.7c4.4-3.9,11.3-5.9,21.1-5.9h26V65.2H232.8v26.5h44.7
		c8.4,0,14.7,2,19.2,5.9s6.4,10.3,6.4,18.7v260.9c0,28.5-6.9,50.1-20.6,65.3c-13.8,15.2-32.9,22.6-57.5,22.6
		c-22.1,0-41.3-5.4-57-15.7c-11.8-7.9-17.7-17.2-17.7-28.5c0-4.4,1-7.4,3.4-9.8c2-2,5.9-2.9,11.3-2.9c2.5,0,6.9,0.5,13.3,2
		c4.4,1,8.4,1,10.8,1c11.8,0,21.6-4.4,29.5-13.3c8.4-8.8,12.3-20.1,12.3-34.4c0-15.2-5.9-28-17.2-38.3
		c-11.3-10.3-25.5-15.7-42.2-15.7c-19.7,0-35.9,6.9-49.6,21.1c-13.8,13.8-20.1,31.9-20.1,54c0,28.5,13.3,53.5,40.3,75.7
		c21.6,17.7,48.6,28,80.6,30.9c-35.4,9.3-67.3,26.5-94.3,53.5c-40.3,41.8-60.9,92.8-60.9,156.7c0,42.7,9.3,82,28.5,114.5
		c18.7,32.4,44.7,58,77.1,77.1c32.9,19.2,69.8,28.5,111,28.5c61.9,0,114-21.1,155.7-62.9s62.9-94.3,62.9-157.2
		c0-41.3-9.3-78.6-28.5-111.5C455.3,557,428.8,530.9,394.9,511.8z"/>
</g>
</svg>
